<svg width="160" height="160" viewBox="0 0 160 160" fill="none" xmlns="http://www.w3.org/2000/svg">
<circle cx="80" cy="83" r="20" fill="#EEEEEE"/>
<path fill-rule="evenodd" clip-rule="evenodd" d="M159.499 89C155.027 128.946 121.14 160 80 160C38.8599 160 4.9728 128.946 0.500617 89H50.6001C53.3797 102.693 65.4863 113 80 113C94.5137 113 106.62 102.693 109.4 89H159.499ZM159.945 77C158.367 34.2072 123.178 0 80 0C36.8217 0 1.63283 34.2072 0.05521 77H50.6001C53.3797 63.3066 65.4863 53 80 53C94.5137 53 106.62 63.3066 109.4 77H159.945Z" fill="#EEEEEE"/>
</svg>
